<svg xmlns="http://www.w3.org/2000/svg" xmlns:xlink="http://www.w3.org/1999/xlink" width="71.95921325683594" height="29.302616119384766" viewBox="0 0 71.95921325683594 29.302616119384766" fill="none"><path id="减去顶层" fill-rule="evenodd" style="fill:#595858" transform="translate(0 0)  rotate(0 35.97960662841797 14.651308059692383)" opacity="0.7" d="M62.9592 0.803847Q63.2145 0.656467 63.483 0.534817Q63.7515 0.413167 64.0306 0.318419Q64.3097 0.223671 64.5968 0.156738Q64.8838 0.0898046 65.1761 0.0513306Q65.4683 0.0128565 65.7629 0.00321216Q66.0575 -0.00643219 66.3516 0.0128461Q66.6458 0.0321243 66.9366 0.0801395Q67.2274 0.128155 67.5121 0.204444Q67.7968 0.280734 68.0727 0.384564Q68.3486 0.488393 68.6129 0.618763Q68.8773 0.749132 69.1276 0.904786Q69.3779 1.06044 69.6118 1.23988Q69.8456 1.41932 70.0608 1.62081Q70.2759 1.82231 70.4702 2.04392Q70.6646 2.26554 70.8363 2.50513Q71.008 2.74473 71.1554 3Q71.229 3.12755 71.2963 3.25855Q71.3636 3.38956 71.4244 3.52371Q71.4852 3.65786 71.5393 3.79483Q71.5934 3.9318 71.6408 4.07127Q71.6881 4.21073 71.7286 4.35235Q71.769 4.49396 71.8025 4.63739Q71.8359 4.78082 71.8623 4.92572Q71.8886 5.07062 71.9079 5.21664Q71.9271 5.36266 71.9391 5.50945Q71.9512 5.65623 71.956 5.80343Q71.9608 5.95063 71.9584 6.09789Q71.956 6.24515 71.9464 6.39211Q71.9368 6.53908 71.9199 6.68539Q71.9031 6.83171 71.8791 6.97702Q71.8551 7.12234 71.8241 7.2663Q71.793 7.41026 71.7549 7.55252Q71.7168 7.69479 71.6717 7.83501Q71.6267 7.97523 71.5748 8.11307Q71.5229 8.25091 71.4644 8.38605Q71.4058 8.52118 71.3407 8.65328Q71.2755 8.78537 71.204 8.91411Q71.1325 9.04286 71.0547 9.16793Q70.977 9.29301 70.8931 9.41412Q70.8093 9.53523 70.7197 9.65209Q70.6301 9.76894 70.5348 9.88125Q70.4395 9.99357 70.3388 10.1011Q70.2382 10.2086 70.1324 10.311Q70.0265 10.4135 69.9158 10.5106Q69.8051 10.6077 69.6897 10.6993Q69.5744 10.7908 69.4547 10.8766Q69.335 10.9624 69.2112 11.0423Q69.0874 11.1221 68.9599 11.1957L68.9603 11.1964L38.9903 28.4964L38.9859 28.4887L38.9853 28.4891L38.9907 28.4985Q38.3217 28.8847 37.5767 29.0889Q36.8316 29.2931 36.0592 29.3019L36.056 29.302Q35.6518 29.3079 35.2504 29.2595Q34.8491 29.2111 34.4579 29.1093Q34.0667 29.0076 33.6926 28.8542Q33.3186 28.7009 32.9685 28.4988L32.9699 28.4964L3.00041 11.1967L6 6.00029L3 11.1964Q2.87244 11.1228 2.74865 11.043Q2.62486 10.9632 2.50513 10.8774Q2.38541 10.7916 2.27004 10.7Q2.15466 10.6084 2.04392 10.5113Q1.93318 10.4142 1.82734 10.3118Q1.7215 10.2093 1.62082 10.1018Q1.52013 9.99434 1.42484 9.88202Q1.32954 9.76971 1.23988 9.65286Q1.15021 9.536 1.06639 9.41489Q0.982567 9.29377 0.904787 9.1687Q0.827007 9.04361 0.755458 8.91487Q0.683909 8.78612 0.618763 8.65402Q0.553618 8.52192 0.495033 8.38678Q0.436448 8.25164 0.384564 8.11379Q0.332681 7.97594 0.287624 7.83571Q0.242567 7.69548 0.204445 7.5532Q0.166323 7.41093 0.135228 7.26696Q0.104133 7.12299 0.0801399 6.97766Q0.0561467 6.83234 0.0393132 6.68601Q0.0224797 6.53968 0.0128463 6.39271Q0.003213 6.24573 0.000803051 6.09846Q-0.0016069 5.95119 0.00321235 5.80397Q0.0080316 5.65676 0.0200684 5.50996Q0.0321053 5.36316 0.0513307 5.21713Q0.0705561 5.0711 0.0969238 4.92619Q0.123292 4.78127 0.156738 4.63783Q0.190184 4.49439 0.230629 4.35276Q0.271074 4.21113 0.318419 4.07165Q0.365764 3.93218 0.419896 3.79519Q0.474028 3.65821 0.534817 3.52405Q0.595605 3.38988 0.662903 3.25887Q0.730201 3.12785 0.803847 3.00029Q0.877489 2.87274 0.957301 2.74895Q1.03711 2.62517 1.1229 2.50545Q1.20869 2.38573 1.30025 2.27036Q1.39181 2.15499 1.48892 2.04426Q1.58603 1.93352 1.68846 1.82769Q1.79088 1.72185 1.89838 1.62117Q2.00588 1.52048 2.11818 1.42519Q2.23049 1.3299 2.34734 1.24024Q2.46418 1.15058 2.58529 1.06676Q2.70639 0.982934 2.83147 0.905155Q2.95654 0.827376 3.08528 0.755827Q3.21401 0.684278 3.34611 0.619132Q3.4782 0.553986 3.61333 0.495399Q3.74846 0.436813 3.8863 0.384927Q4.02415 0.333041 4.16437 0.287982Q4.30459 0.242922 4.44685 0.204796Q4.58912 0.16667 4.73308 0.135571Q4.87705 0.104471 5.02236 0.0804729Q5.16768 0.0564744 5.314 0.0396348Q5.46031 0.0227952 5.60728 0.013155Q5.75425 0.00351484 5.90152 0.0010973Q6.04878 -0.00132024 6.19599 0.00349068Q6.34319 0.0083016 6.48998 0.0203294Q6.63678 0.0323572 6.7828 0.0515729Q6.92883 0.0707886 7.07373 0.0971459Q7.21864 0.123503 7.36208 0.156939Q7.50552 0.190374 7.64714 0.230807Q7.78877 0.27124 7.92824 0.318573Q8.06771 0.365907 8.20469 0.420026Q8.34167 0.474145 8.47583 0.534921Q8.60999 0.595696 8.74101 0.66298Q8.87203 0.730265 8.99959 0.803897L9 0.804136L35.9801 16.3782L62.9596 0.80449L62.9592 0.803847Z " /></svg>