<svg xmlns="http://www.w3.org/2000/svg" xmlns:xlink="http://www.w3.org/1999/xlink" width="72" height="29.319224948520116" viewBox="0 0 72 29.319224948520116" fill="none"><defs><filter id="filter_0" x="-6" y="-6" width="84" height="41.31922494852011" filterUnits="userSpaceOnUse" color-interpolation-filters="sRGB"><feFlood flood-opacity="0" result="BackgroundImageFix"/>
          <feBlend mode="normal" in="SourceGraphic" in2="BackgroundImageFix" result="shape"/>
          <feColorMatrix in="SourceAlpha" type="matrix" values="0 0 0 0 0 0 0 0 0 0 0 0 0 0 0 0 0 0 127 0" result="hardAlpha"/>
          <feOffset dx="0" dy="0"/>
          <feGaussianBlur stdDeviation="3"/>
          <feComposite in2="hardAlpha" operator="arithmetic" k2="-1" k3="1"/>
          <feColorMatrix type="matrix" values="0 0 0 0 0 0 0 0 0 0 0 0 0 0 0 0 0 0 0.8 0"/>
          <feBlend mode="normal" in2="shape" result="effect1_Shadow"/></filter></defs><g id="减去顶层" filter="url(#filter_0)"><path id="减去顶层" fill-rule="evenodd" style="fill:#4E4E4E" transform="translate(0 0)  rotate(0 36 14.659612474260054)" opacity="0.6000000000000001" d="M63.0005 0.811135Q63.2558 0.663755 63.5242 0.542105Q63.7927 0.420455 64.0718 0.325707Q64.351 0.230959 64.638 0.164026Q64.9251 0.0970924 65.2173 0.0586183Q65.5096 0.0201443 65.8042 0.0104999Q66.0988 0.00085558 66.3929 0.0201339Q66.687 0.0394121 66.9779 0.0874274Q67.2687 0.135443 67.5534 0.211732Q67.8381 0.288022 68.114 0.391852Q68.3899 0.495681 68.6542 0.626051Q68.9186 0.75642 69.1689 0.912074Q69.4192 1.06773 69.6531 1.24717Q69.8869 1.42661 70.102 1.6281Q70.3172 1.8296 70.5115 2.05121Q70.7059 2.27283 70.8776 2.51242Q71.0493 2.75202 71.1966 3.00729Q71.2703 3.1348 71.3375 3.26578Q71.4048 3.39675 71.4656 3.53086Q71.5264 3.66498 71.5805 3.80191Q71.6346 3.93885 71.6819 4.07827Q71.7293 4.2177 71.7697 4.35928Q71.8102 4.50086 71.8436 4.64425Q71.8771 4.78764 71.9034 4.9325Q71.9298 5.07736 71.949 5.22334Q71.9683 5.36932 71.9803 5.51607Q71.9924 5.66282 71.9972 5.80998Q72.0021 5.95714 71.9997 6.10436Q71.9973 6.25158 71.9877 6.39851Q71.9781 6.54544 71.9613 6.69172Q71.9445 6.838 71.9206 6.98328Q71.8966 7.12857 71.8656 7.2725Q71.8345 7.41643 71.7965 7.55866Q71.7584 7.7009 71.7134 7.84109Q71.6684 7.98129 71.6166 8.11911Q71.5647 8.25693 71.5062 8.39204Q71.4477 8.52715 71.3826 8.65923Q71.3175 8.79131 71.246 8.92004Q71.1746 9.04877 71.0969 9.17383Q71.0192 9.2989 70.9354 9.42Q70.8517 9.54111 70.7621 9.65796Q70.6725 9.77481 70.5773 9.88713Q70.4821 9.99944 70.3815 10.107Q70.2808 10.2145 70.1751 10.3169Q70.0693 10.4194 69.9587 10.5165Q69.848 10.6136 69.7327 10.7052Q69.6174 10.7968 69.4978 10.8826Q69.3782 10.9685 69.2544 11.0483Q69.1307 11.1282 69.0033 11.2018L69.0044 11.2038L39.0144 28.5138L39.0099 28.506L39.0095 28.5061L39.015 28.5156Q38.3461 28.9018 37.6012 29.106Q36.8563 29.3102 36.084 29.319L36.078 29.3191Q35.6741 29.3248 35.273 29.2764Q34.872 29.2279 34.4811 29.1261Q34.0901 29.0244 33.7164 28.8711Q33.3426 28.7178 32.9928 28.5159L32.9948 28.5123L3.0079 11.2041L6.00729 6.00758L3.00729 11.2037Q2.87973 11.1301 2.75594 11.0503Q2.63215 10.9705 2.51242 10.8847Q2.3927 10.7989 2.27732 10.7073Q2.16195 10.6157 2.05121 10.5186Q1.94047 10.4215 1.83463 10.3191Q1.72879 10.2166 1.6281 10.1091Q1.52742 10.0016 1.43212 9.88931Q1.33683 9.777 1.24717 9.66014Q1.1575 9.54329 1.07368 9.42218Q0.989854 9.30106 0.912074 9.17598Q0.834294 9.0509 0.762745 8.92216Q0.691196 8.79341 0.626051 8.66131Q0.560905 8.52921 0.50232 8.39407Q0.443735 8.25893 0.391852 8.12108Q0.339968 7.98323 0.294911 7.84299Q0.249854 7.70276 0.211732 7.56049Q0.173611 7.41822 0.142516 7.27424Q0.111421 7.13027 0.0874274 6.98495Q0.0634342 6.83962 0.0466007 6.6933Q0.0297672 6.54697 0.0201338 6.39999Q0.0105005 6.25302 0.00809055 6.10575Q0.0056806 5.95847 0.0104999 5.81126Q0.0153191 5.66405 0.0273559 5.51725Q0.0393928 5.37045 0.0586182 5.22442Q0.0778436 5.07839 0.104211 4.93348Q0.130579 4.78856 0.164025 4.64512Q0.197472 4.50167 0.237917 4.36004Q0.278361 4.21841 0.325707 4.07894Q0.373052 3.93946 0.427184 3.80248Q0.481316 3.6655 0.542104 3.53133Q0.602893 3.39717 0.670191 3.26615Q0.737489 3.13513 0.811135 3.00758Q0.884775 2.88003 0.964585 2.75625Q1.04439 2.63246 1.13018 2.51275Q1.21597 2.39303 1.30753 2.27767Q1.39908 2.1623 1.49619 2.05157Q1.5933 1.94084 1.69572 1.835Q1.79814 1.72917 1.90564 1.62848Q2.01313 1.5278 2.12543 1.43251Q2.23773 1.33723 2.35458 1.24756Q2.47142 1.1579 2.59252 1.07408Q2.71362 0.99026 2.83869 0.912481Q2.96376 0.834702 3.09249 0.763153Q3.22123 0.691605 3.35332 0.626458Q3.48541 0.561312 3.62053 0.502725Q3.75566 0.444137 3.8935 0.392251Q4.03133 0.340364 4.17155 0.295303Q4.31177 0.250241 4.45403 0.212114Q4.59629 0.173986 4.74025 0.142885Q4.88421 0.111783 5.02952 0.0877819Q5.17483 0.0637809 5.32115 0.0469384Q5.46746 0.0300958 5.61443 0.0204523Q5.76139 0.0108088 5.90865 0.00838764Q6.05591 0.00596642 6.20311 0.0107733Q6.35032 0.0155802 6.49711 0.0276037Q6.64389 0.0396271 6.78992 0.0588381Q6.93594 0.0780491 7.08084 0.104401Q7.22575 0.130754 7.36918 0.164184Q7.51262 0.197614 7.65424 0.238041Q7.79587 0.278469 7.93534 0.325796Q8.07481 0.373124 8.21179 0.427237Q8.34876 0.48135 8.48292 0.542119Q8.61708 0.602888 8.7481 0.670166Q8.87912 0.737444 9.00667 0.811069L9.00729 0.811424L36.0059 16.3948L63.0016 0.813084L63.0005 0.811135Z " /></g></svg>